<svg xmlns="http://www.w3.org/2000/svg" xmlns:xlink="http://www.w3.org/1999/xlink" width="417" zoomAndPan="magnify" viewBox="0 0 312.75 312.749988" height="417" preserveAspectRatio="xMidYMid meet" version="1.0"><defs><clipPath id="5053664053"><path d="M 32 32 L 297 32 L 297 297 L 32 297 Z M 32 32 " clip-rule="nonzero"/></clipPath><clipPath id="2ae9036483"><path d="M 236.265625 311.78125 L -0.00390625 236.261719 L 75.515625 -0.0078125 L 311.785156 75.511719 Z M 236.265625 311.78125 " clip-rule="nonzero"/></clipPath><clipPath id="087d65bb3c"><path d="M 178.53125 293.328125 L 120.796875 274.875 C 55.3125 253.945312 16.902344 183.371094 37.753906 118.128906 C 58.609375 52.882812 130.832031 17.675781 196.316406 38.605469 L 254.050781 57.058594 C 285.9375 67.25 303.523438 101.363281 293.332031 133.246094 L 254.71875 254.046875 C 244.527344 285.933594 210.417969 303.519531 178.53125 293.328125 Z M 178.53125 293.328125 " clip-rule="nonzero"/></clipPath><clipPath id="31b8db4b31"><path d="M 0 0 L 265 0 L 265 265 L 0 265 Z M 0 0 " clip-rule="nonzero"/></clipPath><clipPath id="71c46f8a02"><path d="M 204.265625 279.78125 L -32.003906 204.261719 L 43.515625 -32.007812 L 279.785156 43.511719 Z M 204.265625 279.78125 " clip-rule="nonzero"/></clipPath><clipPath id="801ac5177e"><path d="M 146.53125 261.328125 L 88.796875 242.875 C 23.3125 221.945312 -15.097656 151.371094 5.753906 86.128906 C 26.609375 20.882812 98.832031 -14.324219 164.316406 6.605469 L 222.050781 25.058594 C 253.9375 35.25 271.523438 69.363281 261.332031 101.246094 L 222.71875 222.046875 C 212.527344 253.933594 178.417969 271.519531 146.53125 261.328125 Z M 146.53125 261.328125 " clip-rule="nonzero"/></clipPath><clipPath id="9a02c4e3a9"><rect x="0" width="265" y="0" height="265"/></clipPath><clipPath id="196f62a474"><path d="M 100 89 L 229 89 L 229 222 L 100 222 Z M 100 89 " clip-rule="nonzero"/></clipPath><clipPath id="16118bfc51"><path d="M 173.507812 66.933594 L 249.210938 174.203125 L 144.398438 248.171875 L 68.695312 140.902344 Z M 173.507812 66.933594 " clip-rule="nonzero"/></clipPath><clipPath id="e6d974d8a8"><path d="M 228.089844 166.523438 L 176.074219 166.378906 L 190.589844 215.097656 L 170.433594 221.949219 L 155.617188 172.804688 L 112.625 203.148438 L 100.546875 186.035156 L 143.542969 155.695312 L 102.203125 125.265625 L 115.113281 108.144531 L 156.453125 138.570312 L 173.742188 89.519531 L 194.039062 96.023438 L 176.746094 145.078125 L 228.757812 145.222656 Z M 228.089844 166.523438 " clip-rule="nonzero"/></clipPath><clipPath id="e0970f9d62"><path d="M 0.480469 0.449219 L 128.777344 0.449219 L 128.777344 133 L 0.480469 133 Z M 0.480469 0.449219 " clip-rule="nonzero"/></clipPath><clipPath id="1fbb165f8d"><path d="M 73.507812 -22.066406 L 149.210938 85.203125 L 44.398438 159.171875 L -31.304688 51.902344 Z M 73.507812 -22.066406 " clip-rule="nonzero"/></clipPath><clipPath id="ce082e1485"><path d="M 128.089844 77.523438 L 76.074219 77.378906 L 90.589844 126.097656 L 70.433594 132.949219 L 55.617188 83.804688 L 12.625 114.148438 L 0.546875 97.035156 L 43.542969 66.695312 L 2.203125 36.265625 L 15.113281 19.144531 L 56.453125 49.570312 L 73.742188 0.519531 L 94.039062 7.023438 L 76.746094 56.078125 L 128.757812 56.222656 Z M 128.089844 77.523438 " clip-rule="nonzero"/></clipPath><clipPath id="b5c5daa6e6"><rect x="0" width="129" y="0" height="133"/></clipPath></defs><g clip-path="url(#5053664053)"><g clip-path="url(#2ae9036483)"><g clip-path="url(#087d65bb3c)"><g transform="matrix(1, 0, 0, 1, 32, 32)"><g clip-path="url(#9a02c4e3a9)"><g clip-path="url(#31b8db4b31)"><g clip-path="url(#71c46f8a02)"><g clip-path="url(#801ac5177e)"><path fill="#25cb27" d="M 204.265625 279.78125 L -32.003906 204.261719 L 43.515625 -32.007812 L 279.785156 43.511719 Z M 204.265625 279.78125 " fill-opacity="1" fill-rule="nonzero"/></g></g></g></g></g></g></g></g><g clip-path="url(#196f62a474)"><g clip-path="url(#16118bfc51)"><g clip-path="url(#e6d974d8a8)"><g transform="matrix(1, 0, 0, 1, 100, 89)"><g clip-path="url(#b5c5daa6e6)"><g clip-path="url(#e0970f9d62)"><g clip-path="url(#1fbb165f8d)"><g clip-path="url(#ce082e1485)"><path fill="#000000" d="M 73.507812 -22.066406 L 148.921875 84.792969 L 44.109375 158.761719 L -31.304688 51.902344 Z M 73.507812 -22.066406 " fill-opacity="1" fill-rule="nonzero"/></g></g></g></g></g></g></g></g></svg>